<svg 
 xmlns="http://www.w3.org/2000/svg"
 xmlns:xlink="http://www.w3.org/1999/xlink"
 width="82px" height="21px">
<path fill-rule="evenodd"  fill="rgb(55, 55, 55)"
 d="M74.470,21.001 L74.104,21.001 C69.527,21.001 66.488,18.378 66.488,14.486 L66.488,6.515 C66.488,2.582 69.612,0.001 74.104,0.001 L74.470,0.001 C78.962,0.001 82.000,2.582 82.000,6.515 L82.000,14.486 C82.000,18.378 78.962,21.001 74.470,21.001 ZM61.482,6.894 C61.405,6.942 61.317,6.968 61.227,6.968 C61.188,6.968 61.149,6.963 61.111,6.953 C60.984,6.921 60.877,6.838 60.815,6.724 C60.014,5.251 59.077,4.565 57.866,4.565 L57.099,4.565 C55.581,4.582 54.561,5.951 54.561,7.973 L54.561,13.074 C54.561,15.492 55.457,16.377 57.809,16.377 C58.794,16.377 60.305,16.190 60.305,15.115 L60.305,14.232 C60.305,14.017 60.128,13.842 59.910,13.842 L59.353,13.842 C59.086,13.842 58.869,13.628 58.869,13.364 L58.869,12.884 C58.869,11.585 59.935,10.531 61.249,10.531 L64.522,10.531 C64.689,10.531 64.825,10.666 64.825,10.831 L64.825,15.115 C64.825,18.784 62.253,21.001 58.729,21.001 L58.726,20.991 C58.607,20.996 58.486,21.001 58.353,21.001 L56.626,21.001 C51.579,21.001 48.566,18.198 48.566,13.504 L48.566,7.506 C48.566,3.107 51.640,0.248 56.577,0.047 L56.796,0.028 C60.421,0.043 62.773,0.334 64.855,4.236 C64.968,4.448 64.899,4.710 64.695,4.840 L61.482,6.894 ZM47.506,21.001 L42.576,21.001 C42.410,21.001 42.257,20.914 42.173,20.772 L38.853,15.192 C38.666,14.839 38.411,14.682 38.025,14.682 L37.890,14.682 C37.164,14.682 36.906,15.137 36.906,15.563 L36.906,20.538 C36.906,20.793 36.696,21.001 36.438,21.001 L33.258,21.001 L32.376,21.001 L28.788,21.001 C28.596,21.001 28.423,20.884 28.352,20.707 L28.330,20.650 C28.270,20.499 27.871,19.482 27.731,19.124 L27.718,19.088 C27.545,18.638 27.270,18.122 26.665,18.122 L20.012,18.122 C19.407,18.122 19.131,18.638 18.959,19.089 L18.945,19.125 C18.795,19.510 18.342,20.662 18.341,20.666 L18.323,20.709 C18.253,20.885 18.081,21.001 17.889,21.001 L13.436,21.001 C13.284,21.001 13.141,20.927 13.053,20.804 C12.965,20.681 12.944,20.523 12.996,20.381 L20.275,0.377 C20.354,0.158 20.564,0.012 20.799,0.012 L23.658,0.012 L23.658,0.012 L25.882,0.012 C26.115,0.012 26.323,0.157 26.402,0.374 L31.358,13.961 C31.465,14.257 31.908,14.180 31.908,13.866 L31.909,0.473 C31.909,0.217 32.118,0.010 32.377,0.010 L39.051,0.010 C44.374,0.010 47.551,2.822 47.551,7.532 L47.551,7.857 C47.551,10.214 46.729,11.895 45.039,12.994 L45.027,13.002 L45.015,13.010 C44.485,13.403 44.520,13.899 44.624,14.381 C44.634,14.428 44.647,14.473 44.662,14.518 C44.688,14.592 44.720,14.664 44.758,14.732 L47.934,20.311 C48.041,20.498 48.006,20.741 47.829,20.892 C47.741,20.967 47.623,21.001 47.506,21.001 ZM13.251,6.894 C13.175,6.942 13.086,6.968 12.997,6.968 C12.958,6.968 12.919,6.963 12.880,6.953 C12.754,6.921 12.646,6.838 12.584,6.724 C11.783,5.251 10.846,4.565 9.635,4.565 L8.533,4.565 C7.015,4.582 5.995,5.951 5.995,7.973 L5.995,13.074 C5.995,15.492 6.870,16.391 9.222,16.391 L12.128,16.391 C12.281,16.391 12.424,16.465 12.511,16.588 C12.599,16.712 12.620,16.869 12.568,17.011 C12.438,17.370 12.322,17.688 12.213,17.991 C11.908,18.835 11.644,19.564 11.206,20.702 C11.137,20.882 10.963,21.001 10.768,21.001 L8.060,21.001 C3.013,21.001 0.000,18.198 0.000,13.504 L0.000,7.506 C0.000,3.107 3.074,0.248 8.011,0.047 L8.312,0.028 C8.322,0.027 8.332,0.027 8.342,0.027 L8.344,0.027 L8.565,0.028 C12.191,0.043 14.543,0.334 16.624,4.236 C16.737,4.448 16.668,4.710 16.465,4.840 L13.251,6.894 Z"/>
</svg>